<svg xmlns="http://www.w3.org/2000/svg" fill="none" viewBox="0 0 40 40">
  <path fill="#1EBF88" d="M0 0h40v40H0z"/>
  <path d="M27.2 18.875v2.25H32v-2.25h-4.8zm-2.4 7.436c1.152.799 2.652 1.857 3.84 2.689.48-.596.96-1.204 1.44-1.8-1.188-.832-2.688-1.89-3.84-2.7-.48.608-.96 1.215-1.44 1.811zM30.08 12.8c-.48-.596-.96-1.204-1.44-1.8-1.188.832-2.688 1.89-3.84 2.7.48.596.96 1.204 1.44 1.8 1.152-.81 2.652-1.856 3.84-2.7zM10.4 16.625c-1.32 0-2.4 1.012-2.4 2.25v2.25c0 1.238 1.08 2.25 2.4 2.25h1.2v4.5H14v-4.5h1.2l6 3.375v-13.5l-6 3.375h-4.8zM24.2 20c0-1.496-.696-2.846-1.8-3.769v7.526c1.104-.91 1.8-2.26 1.8-3.757z" fill="#FBFBFB"/>
</svg>
